<svg width="127" height="121" viewBox="0 0 127 121" fill="none" xmlns="http://www.w3.org/2000/svg">
<rect width="127" height="121" fill="white"/>
<mask id="path-2-inside-1_301_9" fill="white">
<path d="M18 18H68V68H18V18Z"/>
</mask>
<path d="M18 18H68V68H18V18Z" fill="#D9D9D9" fill-opacity="0.01"/>
<path d="M18 18V16H16V18H18ZM68 18H70V16H68V18ZM68 68V70H70V68H68ZM18 68H16V70H18V68ZM18 20H68V16H18V20ZM66 18V68H70V18H66ZM68 66H18V70H68V66ZM20 68V18H16V68H20Z" fill="black" mask="url(#path-2-inside-1_301_9)"/>
<mask id="path-4-inside-2_301_9" fill="white">
<path d="M68 26H110V68H68V26Z"/>
</mask>
<path d="M68 26H110V68H68V26Z" fill="#D9D9D9" fill-opacity="0.01"/>
<path d="M110 26H112V24H110V26ZM110 68V70H112V68H110ZM68 28H110V24H68V28ZM108 26V68H112V26H108ZM110 66H68V70H110V66Z" fill="black" mask="url(#path-4-inside-2_301_9)"/>
<mask id="path-6-inside-3_301_9" fill="white">
<path d="M32 68H68V104H32V68Z"/>
</mask>
<path d="M32 68H68V104H32V68Z" fill="#D9D9D9" fill-opacity="0.01"/>
<path d="M68 104V106H70V104H68ZM32 104H30V106H32V104ZM66 68V104H70V68H66ZM68 102H32V106H68V102ZM34 104V68H30V104H34Z" fill="black" mask="url(#path-6-inside-3_301_9)"/>
<mask id="path-8-inside-4_301_9" fill="white">
<path d="M68 68H92V92H68V68Z"/>
</mask>
<path d="M68 68H92V92H68V68Z" fill="#D9D9D9" fill-opacity="0.01"/>
<path d="M92 92V94H94V92H92ZM90 68V92H94V68H90ZM92 90H68V94H92V90Z" fill="black" mask="url(#path-8-inside-4_301_9)"/>
</svg>
