<svg width="29" height="19" viewBox="0 0 29 19" fill="none" xmlns="http://www.w3.org/2000/svg">
<path fill-rule="evenodd" clip-rule="evenodd" d="M0.228897 1.16668C0.228897 0.602891 0.710777 0.145844 1.30519 0.145844H27.1363C27.7307 0.145844 28.2126 0.602891 28.2126 1.16668C28.2126 1.73046 27.7307 2.18751 27.1363 2.18751H1.30519C0.710777 2.18751 0.228897 1.73046 0.228897 1.16668Z" fill="black"/>
<path fill-rule="evenodd" clip-rule="evenodd" d="M3.09901 9.33333C3.09901 8.76956 3.58089 8.3125 4.17531 8.3125H24.2662C24.8606 8.3125 25.3425 8.76956 25.3425 9.33333C25.3425 9.89711 24.8606 10.3542 24.2662 10.3542H4.17531C3.58089 10.3542 3.09901 9.89711 3.09901 9.33333Z" fill="#BFBFBF"/>
<path fill-rule="evenodd" clip-rule="evenodd" d="M5.96915 17.5C5.96915 16.9362 6.45103 16.4792 7.04544 16.4792H21.3961C21.9905 16.4792 22.4724 16.9362 22.4724 17.5C22.4724 18.0638 21.9905 18.5209 21.3961 18.5209H7.04544C6.45103 18.5209 5.96915 18.0638 5.96915 17.5Z" fill="black"/>
</svg>
